<?xml version="1.0" standalone="no"?>
<!DOCTYPE svg PUBLIC "-//W3C//DTD SVG 20010904//EN"
 "http://www.w3.org/TR/2001/REC-SVG-20010904/DTD/svg10.dtd">
<svg version="1.0" xmlns="http://www.w3.org/2000/svg"
 width="500.000000pt" height="500.000000pt" viewBox="0 0 500.000000 500.000000"
 preserveAspectRatio="xMidYMid meet">
<metadata>
Created by potrace 1.11, written by Peter Selinger 2001-2013
</metadata>
<g transform="translate(0.000000,500.000000) scale(0.100000,-0.100000)"
fill="#000000" stroke="none">
<path d="M2399 4528 c7 -10 17 -15 22 -12 5 3 6 -3 2 -12 -4 -11 -8 -13 -11
-6 -2 7 -8 12 -13 12 -4 0 -6 -8 -2 -17 3 -10 3 -15 -1 -11 -4 3 -8 12 -9 20
-4 21 -20 25 -23 5 -3 -22 -14 -36 -14 -18 0 7 -5 9 -12 5 -7 -4 -8 -3 -4 5 4
6 12 9 17 6 5 -4 6 2 2 11 -4 11 -8 13 -11 6 -5 -15 -34 -16 -48 -2 -7 7 -11
6 -11 -4 0 -8 4 -13 9 -10 4 3 5 -3 1 -13 -6 -16 -5 -17 13 -3 18 14 18 14 5
-3 -14 -18 -16 -18 -28 -1 -12 16 -18 12 -14 -9 1 -5 -3 -6 -9 -2 -6 3 -8 10
-5 15 3 4 -2 11 -11 14 -12 5 -15 2 -10 -10 5 -14 4 -15 -9 -4 -18 15 -20 0
-2 -20 10 -12 9 -12 -4 -2 -15 11 -48 10 -71 -4 -7 -5 -8 -3 -3 6 6 9 2 10
-16 5 -13 -4 -26 -7 -29 -7 -23 0 -30 4 -24 14 5 7 3 8 -5 4 -7 -5 -10 -14 -7
-21 3 -8 -1 -19 -9 -25 -11 -10 -13 -8 -10 7 2 12 -2 20 -10 20 -8 0 -12 -3
-10 -7 2 -3 -6 -12 -18 -20 -19 -11 -20 -11 -10 1 10 12 7 14 -13 14 -13 -1
-30 -8 -37 -15 -10 -12 -9 -12 4 -2 14 10 18 10 22 -2 4 -10 1 -13 -9 -9 -8 3
-14 -1 -14 -8 0 -8 -6 -5 -15 7 -8 10 -15 15 -15 9 0 -5 -5 -3 -11 5 -9 13
-10 13 -6 0 2 -8 10 -14 16 -12 7 1 10 -2 6 -8 -4 -7 -12 -7 -26 0 -10 6 -19
7 -20 3 0 -4 -5 1 -10 12 l-9 20 3 -20 c1 -11 7 -20 14 -20 6 0 15 -4 20 -9 4
-5 3 -6 -4 -2 -6 3 -14 2 -18 -4 -3 -5 -12 -10 -18 -10 -7 0 -6 4 3 10 13 8
12 10 -3 10 -11 0 -15 4 -11 12 4 6 3 8 -4 4 -6 -3 -9 -15 -7 -26 3 -13 -1
-17 -11 -13 -7 3 -11 10 -7 16 3 6 1 7 -6 3 -9 -6 -9 -11 1 -24 11 -13 11 -14
-1 -7 -9 5 -19 2 -29 -11 -14 -18 -14 -18 -8 0 5 14 2 17 -9 12 -8 -3 -15 -1
-15 5 0 6 -8 2 -17 -9 -10 -12 -34 -23 -53 -25 -28 -3 -34 -8 -32 -22 3 -16 2
-17 -12 -6 -9 8 -19 11 -23 7 -3 -3 -1 -6 5 -6 7 0 12 -4 12 -10 0 -5 -7 -7
-15 -4 -8 4 -21 1 -29 -5 -7 -6 -16 -7 -20 -3 -4 4 -6 1 -4 -7 2 -7 -3 -16
-10 -18 -7 -3 -10 1 -6 10 3 8 1 17 -3 20 -5 3 -9 -6 -9 -21 1 -15 -3 -28 -8
-29 -5 -1 -13 -7 -18 -15 -8 -10 -9 -10 -5 2 2 8 11 14 18 12 8 -2 10 0 6 4
-11 11 -38 14 -31 3 7 -12 -2 -11 -29 2 -19 9 -18 7 3 -10 14 -11 20 -21 13
-21 -6 0 -9 -10 -7 -22 4 -21 4 -21 -5 -3 -4 11 -6 24 -4 28 3 5 -4 3 -15 -4
-12 -7 -19 -16 -16 -20 2 -4 0 -10 -6 -14 -6 -4 -8 -11 -4 -16 3 -5 2 -9 -3
-8 -22 4 -43 -2 -38 -11 3 -5 1 -10 -5 -10 -7 0 -10 6 -7 13 3 8 1 20 -5 28
-8 12 -9 11 -5 -1 7 -22 -17 -51 -42 -53 -19 -1 -19 -2 -3 -21 17 -19 17 -19
-13 0 l-30 18 18 -21 c19 -21 18 -22 -5 -16 -18 4 -20 3 -8 -6 9 -7 10 -11 3
-11 -6 0 -15 5 -18 11 -5 7 -13 5 -24 -5 -10 -9 -20 -14 -22 -11 -3 2 -5 -6
-6 -18 -2 -20 -1 -21 11 -5 7 10 17 14 21 10 5 -4 5 -1 0 7 -6 10 -4 12 5 6
10 -6 7 -12 -11 -26 -17 -13 -27 -15 -37 -7 -10 8 -11 7 -5 -8 7 -19 6 -19
-22 0 l-30 19 24 -27 c14 -14 21 -29 18 -33 -4 -3 -7 -1 -7 5 0 7 -5 12 -11
12 -5 0 -8 -4 -5 -8 3 -5 -6 -19 -20 -31 -14 -12 -22 -27 -18 -33 4 -6 3 -8
-4 -4 -6 3 -13 2 -17 -4 -4 -6 -10 -8 -15 -5 -5 3 -20 -1 -33 -10 -13 -8 -27
-12 -32 -8 -4 5 -5 2 -1 -5 4 -7 12 -10 17 -7 5 4 9 -1 9 -10 0 -9 -4 -13 -10
-10 -10 6 -15 -9 -10 -30 1 -5 -2 -7 -5 -3 -4 4 -17 1 -27 -7 -11 -7 -28 -11
-37 -8 -14 4 -14 3 -1 -6 12 -9 13 -11 1 -11 -8 0 -11 -3 -8 -6 4 -4 13 -2 20
5 11 9 17 7 28 -6 11 -15 11 -16 -1 -6 -11 10 -17 8 -32 -9 -10 -12 -18 -25
-18 -30 0 -4 -5 -8 -11 -8 -8 0 -8 4 1 14 8 11 9 20 1 33 -9 17 -10 17 -11 -2
-2 -65 -3 -67 -35 -61 l-30 5 28 -15 c34 -19 34 -21 -2 -18 -23 1 -28 -2 -24
-14 4 -10 2 -13 -5 -8 -6 3 -13 2 -16 -3 -4 -5 1 -8 10 -7 8 1 19 8 23 15 6
10 10 9 14 -4 4 -9 3 -13 -3 -10 -5 3 -15 -5 -21 -19 -13 -29 -35 -40 -45 -24
-4 6 -3 8 3 5 6 -4 17 1 24 11 13 15 12 16 -3 3 -14 -11 -18 -11 -18 -1 0 16
-11 7 -14 -12 -1 -7 -7 -22 -13 -33 -5 -11 -8 -26 -5 -34 3 -8 0 -11 -7 -7 -6
4 -11 1 -11 -8 0 -10 6 -13 17 -10 10 4 5 -3 -10 -14 -31 -21 -35 -31 -18 -41
6 -4 2 -12 -10 -20 -12 -7 -19 -8 -15 -3 3 5 -1 9 -8 9 -8 0 -12 -7 -8 -15 4
-11 1 -13 -8 -7 -9 5 -11 4 -6 -3 4 -7 1 -12 -6 -12 -8 0 -6 -4 4 -11 16 -9
16 -12 3 -33 -8 -12 -13 -26 -10 -29 3 -4 0 -3 -7 2 -8 8 -8 14 1 25 9 11 9
16 -1 22 -7 4 -10 4 -6 -1 4 -4 -2 -21 -14 -38 -12 -17 -17 -27 -11 -24 7 4
14 3 18 -3 4 -6 11 -7 17 -4 7 4 8 2 4 -4 -4 -6 -14 -8 -23 -5 -11 4 -14 3 -9
-5 4 -8 2 -10 -8 -6 -11 4 -14 -1 -11 -21 2 -26 -1 -31 -40 -61 -19 -15 -19
-15 3 -4 12 6 22 7 22 1 0 -5 -6 -11 -14 -14 -9 -4 -12 -14 -9 -26 4 -16 0
-21 -13 -22 -16 0 -15 -2 3 -9 13 -5 23 -12 23 -15 0 -4 -5 -3 -12 1 -7 5 -9
2 -5 -9 4 -11 2 -14 -8 -10 -8 3 -12 10 -8 16 3 6 1 7 -6 3 -9 -6 -9 -11 1
-24 11 -13 10 -15 -4 -9 -10 3 -20 1 -24 -5 -4 -6 -3 -8 3 -5 6 4 16 0 23 -8
11 -13 10 -14 -6 -8 -16 6 -17 5 -6 -9 10 -12 10 -18 1 -23 -8 -6 -7 -10 2
-16 12 -7 12 -9 0 -9 -11 0 -11 -3 -1 -16 11 -12 11 -15 -1 -12 -10 2 -14 -6
-13 -28 0 -17 -5 -31 -11 -31 -6 0 -12 6 -12 13 0 7 4 11 8 8 4 -2 6 4 4 16
-2 11 0 22 4 25 9 5 7 62 -2 72 -4 3 -5 -11 -3 -31 3 -26 -1 -39 -13 -46 -10
-6 -12 -9 -3 -10 8 0 10 -5 5 -12 -14 -24 -13 -46 3 -52 12 -4 13 -10 6 -19
-6 -6 -11 -15 -11 -19 -2 -14 -15 -9 -17 7 -1 8 2 12 8 9 7 -4 8 -2 4 4 -12
20 -26 13 -22 -10 3 -13 5 -28 5 -35 1 -7 8 -10 18 -6 11 4 14 3 9 -5 -4 -7
-15 -12 -24 -12 -15 0 -15 -2 -2 -10 13 -8 13 -10 -1 -10 -9 0 -20 -8 -24 -17
-5 -15 -4 -16 6 -5 19 18 31 15 20 -5 -16 -30 -24 -57 -22 -72 2 -12 0 -12
-11 -3 -12 9 -15 9 -15 -3 0 -8 3 -12 7 -10 4 2 15 -2 25 -9 17 -12 17 -13 1
-19 -11 -5 -15 -3 -10 5 4 7 3 8 -5 4 -15 -10 -4 -26 17 -26 14 0 15 -2 2 -10
-9 -5 -19 -5 -27 2 -9 7 -13 7 -13 -1 0 -10 13 -15 33 -12 4 0 6 -5 5 -11 -2
-7 3 -12 10 -10 8 1 11 -2 7 -8 -5 -7 -11 -8 -19 -1 -8 7 -17 6 -26 -1 -13 -8
-12 -9 2 -5 10 4 18 -1 21 -14 3 -10 1 -17 -4 -13 -12 7 -11 -3 3 -29 10 -19
9 -20 -3 -10 -12 10 -15 7 -14 -17 0 -16 4 -32 7 -36 4 -4 6 3 3 15 -2 11 0
21 4 21 5 0 8 -15 7 -34 -1 -33 -1 -33 -26 -19 -17 11 -20 11 -9 2 16 -15 22
-49 7 -49 -4 0 -8 -5 -8 -12 0 -9 3 -9 12 0 7 7 15 12 18 12 10 0 9 -39 0 -45
-5 -3 -7 -12 -3 -20 4 -11 1 -13 -13 -8 -16 6 -17 5 -4 -9 9 -10 19 -13 24 -7
6 5 15 9 20 9 6 0 4 -5 -4 -10 -13 -8 -13 -13 -2 -31 13 -21 13 -21 -9 -5 -13
9 -28 16 -34 16 -5 0 -2 -5 8 -11 9 -6 14 -15 11 -21 -4 -7 -2 -8 4 -4 7 4 12
1 12 -9 0 -9 4 -14 8 -11 4 2 9 -4 9 -15 1 -10 -3 -19 -8 -19 -6 0 -8 4 -5 9
3 5 -1 14 -9 21 -10 9 -15 9 -15 1 0 -6 4 -11 9 -11 4 0 8 -8 8 -17 0 -40 3
-54 12 -49 11 7 23 -22 16 -35 -3 -5 -1 -19 5 -31 l11 -23 -18 23 c-18 21 -19
22 -19 3 0 -11 5 -17 10 -14 5 4 7 -1 3 -10 -3 -9 -1 -19 5 -23 7 -4 8 -3 4 4
-4 7 -2 12 3 12 14 0 14 -13 -1 -28 -16 -16 4 -16 22 1 12 10 12 9 1 -5 -13
-18 -6 -42 10 -33 5 3 6 -1 3 -10 -7 -17 -30 -14 -26 4 1 6 -2 11 -7 11 -6 0
-9 -9 -8 -19 0 -11 4 -18 8 -15 4 2 14 -2 22 -10 8 -8 17 -13 21 -11 3 3 2 -1
-4 -7 -25 -30 3 -89 31 -65 7 7 5 2 -5 -10 -19 -23 -32 -31 -21 -14 3 5 1 12
-4 15 -5 4 -8 -2 -6 -11 1 -10 8 -17 14 -15 17 3 13 -16 -6 -27 -16 -9 -16
-10 4 -8 12 0 20 4 18 7 -2 4 2 7 9 7 7 0 13 -6 13 -13 0 -7 -4 -11 -8 -9 -9
6 -34 -24 -25 -32 3 -3 6 -1 6 5 0 7 7 12 15 12 8 0 15 -5 15 -11 0 -5 4 -8 9
-5 11 7 9 -13 -2 -32 -8 -12 9 -37 26 -39 5 -1 12 -5 15 -9 4 -4 2 -4 -5 -1
-18 11 -22 -15 -6 -46 12 -24 12 -31 1 -45 -11 -15 -11 -15 3 -4 14 10 18 10
23 -3 3 -8 3 -23 0 -32 -5 -15 -4 -16 5 -3 7 10 11 11 11 3 0 -24 2 -28 17
-45 8 -9 12 -22 8 -27 -7 -12 41 -35 65 -32 12 1 13 0 1 -7 -18 -13 -5 -33 17
-26 14 5 15 4 2 -5 -12 -9 -20 -5 -36 15 -16 19 -24 23 -29 14 -5 -9 -4 -11 3
-6 7 4 12 2 12 -3 0 -6 11 -21 25 -33 13 -11 22 -25 19 -30 -3 -4 2 -8 11 -8
9 0 14 4 10 9 -3 5 -1 12 4 15 17 11 5 -26 -13 -39 -15 -12 -14 -14 13 -23 16
-6 33 -7 38 -4 4 4 -1 -4 -12 -18 -11 -14 -16 -22 -11 -18 9 7 41 -28 41 -45
0 -13 27 -26 42 -20 7 3 13 -2 13 -10 0 -11 -7 -15 -20 -12 -11 2 -18 0 -15
-5 3 -5 15 -7 26 -5 25 5 49 -4 49 -17 0 -6 -6 -6 -14 1 -10 8 -16 9 -21 1 -4
-6 -1 -9 7 -8 7 2 12 -3 10 -10 -2 -9 4 -12 17 -7 16 5 19 2 17 -19 -2 -14 2
-24 8 -23 6 1 10 -4 8 -11 -1 -8 2 -11 7 -8 5 4 19 -10 31 -29 20 -33 40 -39
40 -12 0 8 -3 8 -9 -1 -7 -11 -9 -11 -14 1 -3 9 1 17 13 20 16 4 18 0 15 -31
-2 -22 0 -30 5 -22 7 11 11 11 24 1 8 -7 18 -21 21 -32 7 -21 35 -27 35 -7 0
6 3 9 6 6 3 -4 -2 -19 -11 -35 -14 -23 -14 -25 -1 -9 14 18 21 15 17 -7 -1 -4
7 -2 17 4 14 9 23 9 38 0 17 -10 15 -10 -9 -5 -22 5 -26 3 -21 -10 3 -8 9 -15
12 -14 19 2 33 -3 28 -10 -2 -4 5 -14 17 -22 21 -12 21 -12 7 6 -9 12 -9 15
-1 7 7 -6 21 -9 30 -6 9 4 6 -3 -9 -17 -16 -14 -19 -21 -8 -17 17 6 43 -15 32
-26 -3 -3 3 -3 15 0 12 3 21 10 21 16 0 6 3 7 6 4 4 -4 1 -13 -5 -21 -9 -11
-9 -16 0 -22 7 -4 9 -3 6 2 -3 6 2 15 12 21 14 9 18 8 18 -3 0 -7 -4 -11 -9
-8 -4 3 -8 1 -8 -4 0 -6 7 -13 16 -16 9 -3 14 -13 11 -21 -4 -9 -1 -12 9 -8
11 4 12 9 5 16 -6 6 -11 16 -11 22 0 5 5 2 11 -7 5 -10 16 -15 24 -12 11 4 15
-1 15 -16 0 -15 4 -20 15 -16 8 3 21 -1 29 -9 7 -8 17 -11 20 -7 4 3 4 -1 1
-9 -3 -9 2 -22 11 -30 10 -8 15 -9 11 -2 -4 6 -4 13 0 16 5 2 1 2 -7 0 -11 -3
-12 -1 -3 8 14 14 34 3 26 -16 -4 -13 9 -21 20 -12 9 6 36 -27 30 -37 -3 -6
-2 -7 3 -3 5 5 9 13 9 18 0 5 5 8 10 7 6 -1 9 -8 7 -15 -2 -8 7 -13 23 -13 14
0 25 5 25 12 0 6 3 8 6 5 4 -4 1 -13 -6 -22 -9 -11 -9 -15 -1 -15 7 0 9 -5 5
-12 -4 -7 -3 -8 5 -4 6 4 8 12 5 18 -5 8 -1 9 10 5 10 -4 20 -7 22 -7 3 0 2
-5 -1 -10 -3 -6 -1 -10 5 -10 6 0 8 -5 4 -12 -4 -7 -3 -8 5 -4 6 4 8 12 5 18
-4 6 -2 8 4 4 5 -3 12 -1 14 6 3 7 7 5 11 -6 4 -10 3 -15 -3 -11 -6 3 -10 1
-10 -4 0 -14 17 -14 25 -1 3 6 12 10 18 10 8 0 8 -3 -1 -9 -10 -6 -9 -10 7
-14 12 -3 19 -1 15 4 -3 5 2 6 10 3 9 -3 13 -10 10 -15 -3 -5 -1 -9 5 -9 5 0
12 6 14 13 3 7 6 5 6 -5 1 -10 5 -18 11 -18 5 0 6 8 3 17 -6 15 -5 16 9 3 9
-8 14 -17 13 -20 -2 -3 1 -12 7 -20 8 -12 9 -12 4 2 -3 10 -1 20 4 23 6 4 10
1 10 -5 0 -6 4 -8 10 -5 5 3 10 0 10 -9 0 -8 7 -13 18 -11 9 1 23 -2 30 -8 7
-5 12 -5 12 0 0 5 -6 15 -12 23 -7 7 2 2 20 -13 20 -16 39 -24 49 -20 10 4 14
2 9 -5 -3 -6 -2 -13 3 -16 5 -4 13 -1 17 5 5 8 3 9 -6 4 -9 -5 -11 -4 -6 3 10
17 15 15 27 -11 8 -19 9 -19 4 7 -5 25 -4 28 12 21 10 -4 23 -8 30 -8 9 0 9
-6 2 -21 -8 -17 -6 -16 12 4 15 16 20 19 16 7 -4 -9 -2 -17 4 -17 6 0 7 -5 3
-12 -5 -7 -3 -8 5 -4 7 5 10 15 6 25 -5 14 -4 14 11 -1 15 -15 19 -15 28 -2
10 13 14 12 33 -6 26 -24 37 -26 30 -5 -7 17 8 29 23 20 8 -5 7 -11 -1 -21 -6
-8 -9 -17 -5 -21 3 -3 6 -1 6 5 0 7 5 12 11 12 5 0 8 -4 4 -9 -3 -5 -1 -12 4
-16 6 -3 8 3 6 13 -5 27 10 49 18 27 5 -11 3 -14 -6 -9 -6 4 -8 3 -4 -1 9 -11
39 -16 33 -6 -3 4 0 13 6 21 8 12 9 12 4 -3 -4 -13 -1 -17 12 -15 9 2 20 8 24
13 4 6 8 1 8 -10 0 -17 2 -17 10 -5 8 12 10 12 10 -5 0 -16 2 -17 9 -5 6 8 7
18 4 24 -3 5 -1 6 6 2 6 -4 8 -13 4 -19 -4 -7 2 -5 12 3 10 8 16 10 12 3 -4
-6 -2 -15 4 -19 8 -4 9 -3 5 4 -4 8 0 12 11 12 15 0 16 2 3 10 -9 6 -10 10 -3
10 19 0 26 -20 11 -37 -12 -15 -11 -15 12 -2 14 8 32 22 41 32 15 15 17 16 23
2 3 -9 2 -13 -4 -10 -5 3 -14 -5 -20 -17 -9 -20 -9 -21 2 -7 17 21 29 21 53 1
20 -17 20 -17 2 5 -14 16 -15 23 -6 29 8 4 10 3 5 -4 -4 -7 -4 -12 1 -13 4 0
17 -2 28 -4 10 -2 24 0 30 5 14 11 27 11 45 -3 8 -6 12 -8 8 -3 -4 5 -1 15 7
22 19 19 25 17 20 -7 -3 -17 -2 -19 10 -9 8 7 12 16 9 21 -10 16 9 9 22 -8 13
-17 14 -17 7 1 -5 15 -3 17 8 11 11 -7 11 -5 -1 10 -15 18 -14 18 19 1 20 -11
30 -13 25 -5 -5 9 -2 10 11 5 14 -5 16 -4 6 7 -9 11 -7 17 6 28 17 13 17 13 3
-5 -14 -17 -13 -18 7 -12 15 5 25 2 33 -11 9 -16 10 -15 4 6 -4 17 -3 21 6 16
8 -5 18 -1 25 9 11 15 13 15 19 1 4 -11 2 -14 -7 -9 -6 4 -8 3 -4 -1 13 -15
36 -14 49 3 11 15 11 15 -3 4 -14 -10 -18 -10 -22 1 -3 8 4 14 21 15 14 1 29
7 33 13 4 7 9 5 12 -6 4 -9 3 -13 -2 -10 -5 3 -12 1 -15 -4 -4 -5 2 -8 11 -7
10 2 18 9 18 17 1 21 15 40 25 34 5 -3 20 -1 32 5 21 10 21 10 -2 -10 -14 -11
-19 -19 -10 -18 8 2 18 8 23 13 4 6 11 4 17 -5 8 -11 9 -7 4 15 -3 17 -2 25 3
19 11 -14 46 -27 38 -14 -3 6 0 11 7 12 7 0 18 2 23 2 6 1 17 6 25 11 8 5 21
10 28 11 8 2 17 5 20 9 4 3 -6 4 -21 1 -15 -2 -27 0 -27 5 0 5 6 9 13 8 6 -1
23 -1 37 0 25 2 25 2 5 17 -20 16 -20 16 3 9 12 -3 22 -2 22 3 0 16 54 10 67
-7 9 -13 11 -13 10 -1 -1 8 2 16 7 17 5 0 13 8 18 17 5 9 14 14 20 10 7 -4 7
0 0 13 -9 15 -8 20 3 20 8 0 13 -3 12 -6 -1 -3 3 -6 8 -7 6 0 9 9 7 20 -2 19
-1 18 13 -4 l15 -25 -4 27 c-3 15 0 31 6 34 7 4 8 2 4 -4 -4 -7 -2 -12 4 -12
6 0 8 -5 4 -12 -4 -6 -3 -8 4 -4 6 3 9 15 7 26 -3 17 0 18 23 9 26 -9 26 -9 7
7 -20 16 -20 16 2 11 13 -3 21 0 20 5 -1 6 4 13 12 16 8 3 11 0 7 -7 -5 -7 -1
-9 9 -5 14 6 14 8 -2 20 -17 12 -17 13 3 8 12 -3 26 1 35 12 13 16 12 16 -11
5 -24 -11 -24 -11 -6 3 13 11 23 13 30 6 12 -12 46 16 46 40 0 9 11 26 23 37
22 18 25 19 35 4 9 -13 10 -12 7 9 l-4 25 17 -23 c17 -21 18 -22 18 -3 0 11
-4 18 -8 15 -4 -2 -6 4 -5 15 1 16 4 18 16 8 12 -10 14 -9 8 6 -5 14 -3 17 11
13 9 -3 24 -1 32 5 13 9 12 10 -2 5 -10 -3 -20 0 -24 6 -4 7 -3 8 4 4 7 -4 12
-2 12 4 0 6 5 8 12 4 7 -5 9 -2 5 9 -4 11 -1 15 13 12 13 -3 17 1 13 11 -3 8
1 14 11 14 9 0 16 7 16 15 0 8 4 15 10 15 5 0 7 -7 4 -15 -4 -8 -2 -15 4 -15
6 0 9 8 7 18 -2 9 -4 20 -4 24 -1 4 -9 5 -18 2 -15 -5 -15 -4 -3 4 10 8 19 7
29 -1 12 -10 14 -9 8 6 -5 12 -3 16 5 11 7 -5 9 -2 5 9 -8 22 16 40 32 24 11
-10 11 -7 1 13 -12 22 -11 23 2 13 15 -13 28 -8 28 11 0 6 -4 5 -9 -2 -7 -11
-9 -10 -14 3 -4 9 -3 13 2 10 5 -3 12 -1 16 5 3 5 1 10 -6 10 -7 0 -10 2 -7 5
9 10 38 -7 31 -18 -4 -6 -1 -7 6 -3 7 5 10 10 7 14 -3 3 2 11 12 19 16 13 15
13 -3 4 -17 -8 -21 -6 -21 9 0 10 6 16 13 13 6 -3 22 2 35 11 12 9 18 16 12
16 -5 0 -15 -5 -21 -11 -8 -8 -13 -7 -18 2 -6 8 -4 10 5 4 9 -6 12 -4 8 6 -4
11 1 14 23 13 16 -1 29 2 29 8 0 5 -10 7 -22 4 -13 -3 -17 -3 -10 0 10 5 10 9
0 22 -12 15 -11 16 5 3 18 -14 22 -7 17 28 -1 11 2 10 15 -3 21 -21 22 -20 21
7 -1 13 4 21 12 19 8 -1 11 2 6 9 -5 9 -2 10 10 6 10 -4 15 -3 11 3 -4 6 -14
9 -22 8 -9 -2 -17 3 -19 10 -1 7 0 8 3 2 2 -5 9 -7 14 -4 6 4 6 11 -1 19 -9
11 -7 12 8 8 16 -4 19 0 17 21 -2 14 1 24 6 20 5 -3 7 -9 5 -13 -3 -4 1 -8 9
-8 15 0 16 18 0 29 -6 4 -2 8 8 8 15 0 16 3 6 21 -9 17 -8 20 2 14 9 -6 10 -3
5 10 -5 15 -4 16 8 6 20 -17 30 3 15 31 -11 21 -11 22 4 10 13 -11 17 -10 25
5 8 13 6 23 -6 36 -15 17 -15 17 1 11 13 -5 16 -2 10 12 -5 13 -3 16 10 11 11
-4 14 -2 10 8 -3 8 -8 13 -12 10 -4 -2 -8 2 -8 10 0 8 4 12 9 9 4 -3 17 -7 28
-9 19 -4 19 -2 6 23 -12 23 -12 28 1 37 15 11 27 68 12 60 -4 -3 -11 0 -15 6
-4 7 -3 9 2 6 6 -3 14 -3 19 1 16 11 41 47 29 39 -7 -4 -15 0 -18 9 -5 12 -2
15 9 10 9 -3 13 -2 10 3 -3 6 2 14 11 19 15 8 15 10 0 15 -11 5 -15 3 -10 -5
4 -7 3 -8 -5 -4 -6 4 -8 13 -4 19 4 7 8 19 10 27 1 8 7 16 13 18 5 2 7 8 4 13
-3 6 -12 5 -22 -3 -15 -12 -16 -11 -3 5 8 10 20 16 27 13 7 -3 16 0 20 6 4 6
3 8 -4 4 -6 -3 -13 -2 -16 3 -3 5 1 11 9 15 17 6 20 26 4 26 -5 0 -7 -5 -3
-12 4 -7 3 -8 -4 -4 -15 9 -3 38 14 32 7 -3 16 -1 19 5 4 5 3 9 -2 8 -19 -3
-31 2 -37 17 -3 8 -2 12 3 9 5 -3 12 -1 16 5 11 18 14 49 5 55 -5 3 -7 -4 -5
-15 2 -11 0 -18 -5 -15 -18 11 -3 40 21 38 13 -1 18 1 11 3 -6 3 -9 10 -6 16
4 6 -2 8 -17 3 -22 -7 -22 -7 -6 10 17 16 17 18 0 32 -17 13 -16 13 4 4 12 -6
24 -16 27 -23 3 -7 3 -2 0 11 -5 17 -3 21 6 16 8 -5 11 -4 6 3 -4 6 -14 8 -24
5 -15 -6 -16 -5 -2 12 14 17 13 18 -2 12 -10 -3 -20 -1 -24 5 -4 6 -3 8 4 4 6
-3 14 -2 17 4 5 8 11 8 20 0 13 -11 13 -8 6 29 -1 2 -9 -3 -18 -10 -15 -12
-16 -12 -11 2 4 9 1 22 -5 29 -8 8 -8 11 -1 7 8 -4 11 14 9 58 -1 40 2 62 8
58 7 -4 8 1 3 13 -6 15 -5 16 5 7 10 -10 9 -15 -1 -28 -7 -8 -8 -15 -2 -15 5
0 13 7 16 16 6 16 -9 42 -44 73 -13 12 -13 13 2 8 17 -6 17 -7 19 91 1 35 4
42 18 38 12 -5 11 -2 -3 9 -10 8 -24 12 -30 8 -6 -3 -5 0 2 8 6 7 12 18 12 24
0 5 -5 3 -11 -5 -8 -12 -9 -10 -4 8 3 12 2 22 -3 22 -6 0 -12 7 -16 15 -5 13
-2 14 17 4 19 -11 20 -10 10 3 -7 8 -9 19 -5 23 4 5 1 5 -5 1 -7 -4 -13 -3
-13 3 0 5 6 12 13 14 9 4 9 6 -1 6 -10 1 -10 6 -2 24 11 21 10 21 -4 3 -9 -10
-13 -23 -10 -27 3 -5 0 -9 -6 -9 -7 0 -9 8 -4 23 11 35 13 68 3 61 -5 -3 -9 0
-9 7 0 8 -5 8 -17 -2 -10 -7 -7 0 7 15 14 16 20 26 14 23 -12 -7 -48 26 -38
36 3 3 13 3 22 0 10 -3 13 -1 7 4 -5 4 -10 14 -11 21 -1 6 -2 17 -2 24 -1 6
-14 1 -29 -13 -20 -17 -23 -18 -10 -3 21 26 23 69 3 61 -10 -4 -13 -1 -9 9 3
7 1 14 -4 14 -5 0 -10 7 -10 16 0 12 5 10 18 -7 10 -13 21 -20 25 -16 4 4 2 7
-5 7 -8 0 -11 6 -7 17 4 10 4 14 0 10 -4 -3 -15 3 -25 15 -23 26 -25 35 -4 18
13 -11 18 -11 28 0 9 10 9 11 0 6 -21 -12 -36 4 -21 22 8 10 9 13 1 9 -6 -4
-14 -3 -18 2 -3 6 -13 7 -23 4 -11 -4 -8 2 8 16 14 12 19 20 13 16 -8 -4 -13
0 -13 9 0 8 -4 17 -9 20 -12 8 -8 -27 4 -36 5 -4 0 -6 -13 -5 -14 1 -18 5 -12
11 15 15 12 26 -7 26 -11 1 -4 7 15 15 17 8 32 17 32 20 0 3 -5 3 -11 0 -14
-10 -49 24 -42 41 3 8 0 14 -7 14 -6 0 -9 -4 -5 -9 3 -5 0 -13 -6 -17 -8 -4
-9 -3 -5 4 4 7 2 12 -5 12 -6 0 -3 8 8 18 10 9 17 16 14 15 -2 -2 -11 3 -20
10 -14 11 -14 10 -2 -5 7 -10 9 -18 3 -18 -13 0 -36 56 -27 69 9 15 -18 14
-35 -1 -12 -11 -12 -10 -2 3 10 13 8 19 -8 34 -18 17 -19 41 0 30 5 -3 12 0
16 6 4 7 3 9 -4 5 -5 -3 -12 0 -14 6 -3 7 -13 13 -24 13 -14 0 -18 7 -18 32 1
24 -2 30 -14 25 -9 -3 -13 -1 -9 5 4 6 1 13 -5 16 -10 3 -10 8 1 21 8 9 10 16
5 15 -28 -5 -54 3 -54 17 0 8 5 12 10 9 6 -3 10 -2 10 4 0 5 -9 9 -19 8 -11 0
-17 -5 -15 -9 9 -15 -6 -8 -25 11 -17 17 -17 20 -4 25 11 5 13 10 4 20 -6 7
-7 16 -3 20 4 4 0 6 -8 4 -10 -2 -14 3 -12 17 3 20 3 20 -11 1 -11 -15 -16
-16 -22 -6 -5 9 -4 11 3 6 7 -4 12 -2 12 3 0 6 -7 11 -15 11 -8 0 -15 -5 -15
-12 0 -6 -3 -8 -6 -5 -4 4 -2 13 4 20 9 10 8 19 -3 34 -8 11 -12 22 -10 25 2
2 -4 4 -14 4 -11 0 -17 -6 -14 -13 3 -7 9 -11 14 -8 4 3 12 -3 18 -13 7 -14 6
-19 -4 -19 -7 0 -11 7 -7 15 3 10 1 13 -6 8 -6 -3 -16 3 -22 14 -6 11 -15 18
-19 16 -4 -3 -8 1 -8 8 0 8 8 11 18 9 9 -3 19 -1 22 4 3 5 -13 8 -35 7 -23 -1
-37 1 -31 4 5 4 10 15 10 24 0 10 -3 16 -5 13 -8 -7 -33 16 -27 25 3 4 -2 13
-10 20 -10 9 -15 9 -15 1 0 -6 4 -11 8 -11 5 0 9 -7 9 -15 0 -8 -4 -15 -9 -15
-4 0 -8 5 -8 11 0 5 -4 8 -9 4 -6 -3 -8 3 -6 15 2 11 -1 23 -7 26 -6 4 -8 3
-5 -3 4 -6 -2 -13 -14 -16 -18 -5 -18 -3 -7 11 7 9 18 21 23 25 6 5 3 7 -7 3
-10 -3 -29 6 -49 25 -17 16 -29 22 -25 14 3 -8 1 -15 -3 -15 -12 0 -22 30 -14
42 3 6 1 8 -5 4 -6 -3 -13 -2 -17 3 -3 6 -13 7 -22 4 -12 -5 -14 -3 -8 7 6 10
4 12 -9 7 -12 -5 -16 -3 -13 5 2 7 10 12 16 10 7 -1 9 2 5 9 -5 9 -13 5 -27
-12 l-20 -24 8 25 c7 22 6 23 -8 12 -13 -11 -16 -10 -22 8 -5 15 -13 20 -25
17 -13 -3 -17 0 -13 9 3 8 10 11 16 7 6 -4 7 -1 3 6 -6 9 -13 8 -27 -5 -19
-17 -20 -17 -13 1 5 13 4 16 -4 11 -7 -4 -13 -2 -13 3 -1 6 -2 15 -3 20 0 5
-5 13 -10 18 -5 4 -6 3 -3 -4 11 -18 -16 -22 -31 -4 -11 13 -12 13 -6 1 5 -12
4 -13 -6 -3 -11 10 -11 15 1 30 13 16 12 17 -3 4 -17 -12 -23 -9 -19 12 1 5
-3 6 -9 2 -6 -3 -8 -11 -5 -16 4 -5 -1 -9 -10 -9 -12 0 -15 6 -10 23 3 12 3
17 -2 11 -4 -6 -20 -13 -35 -16 -20 -4 -25 -2 -20 10 3 9 1 13 -5 9 -6 -4 -9
3 -7 18 3 28 -10 34 -20 9 -4 -10 -2 -13 7 -8 9 5 8 3 -1 -7 -11 -11 -14 -12
-21 -1 -5 8 -11 13 -15 13 -21 -3 -28 1 -23 12 3 7 -2 22 -10 32 -11 14 -14
15 -10 4 4 -11 -3 -20 -21 -28 -26 -11 -26 -11 -7 5 19 16 19 16 -7 10 -23 -5
-28 -3 -28 11 0 15 2 16 10 3 11 -17 13 -9 3 15 -5 15 -8 14 -19 -6 -8 -15
-13 -18 -14 -9 0 13 -1 13 -10 0 -6 -10 -10 -11 -10 -2 0 6 -6 12 -14 12 -8 0
-17 -6 -20 -12 -3 -7 -3 -1 -1 14 2 15 -1 31 -7 34 -6 4 -8 2 -5 -3 7 -12 -21
-22 -40 -16 -7 3 -13 9 -13 15 0 7 5 6 14 -1 11 -9 16 -9 22 0 4 7 3 9 -4 5
-6 -3 -15 2 -21 11 -7 12 -10 13 -11 4 0 -11 -3 -11 -15 -1 -15 12 -16 11 -19
-10 0 -5 -5 -10 -11 -9 -5 1 -9 5 -8 9 1 4 -9 11 -22 14 -14 4 -25 11 -25 16
0 6 -5 10 -12 10 -6 0 -4 -7 5 -18 14 -15 15 -19 2 -19 -8 0 -12 4 -9 9 3 4 1
8 -5 8 -5 0 -12 -6 -15 -12 -3 -7 -3 -2 0 11 4 15 2 21 -4 17 -6 -3 -12 -3
-15 1 -2 5 -2 2 -1 -4 2 -7 -1 -13 -5 -13 -5 0 -12 6 -14 13 -4 10 -6 10 -6 0
-1 -7 -6 -13 -12 -13 -5 0 -7 5 -3 11 4 7 1 10 -7 7 -8 -3 -26 -1 -41 3 -23 6
-28 4 -29 -9 0 -14 -2 -13 -8 3 -5 11 -6 27 -4 35 4 12 3 12 -5 2 -8 -12 -26
-18 -55 -21 -5 -1 -5 -7 -1 -13 5 -10 4 -10 -5 -2 -7 6 -13 20 -14 32 -1 16
-4 18 -14 10 -9 -7 -10 -15 -4 -22 7 -8 4 -12 -9 -12 -10 0 -17 3 -15 6 1 3
-4 12 -13 20 -14 13 -15 12 -9 -3 3 -9 2 -17 -3 -17 -6 0 -10 8 -11 18 0 15
-1 15 -8 -2 -7 -18 -8 -18 -25 -1 -17 17 -17 17 -14 0 2 -12 -4 -19 -19 -20
-12 -1 -20 2 -17 7 3 4 0 8 -6 8 -6 0 -8 5 -4 12 4 7 3 8 -5 4 -6 -4 -8 -13
-5 -19 5 -9 4 -9 -6 0 -7 6 -19 9 -28 6 -11 -5 -13 -3 -7 7 5 8 4 11 -3 6 -5
-3 -13 0 -15 6 -4 10 -6 9 -6 -1 -1 -11 -4 -11 -18 0 -16 13 -17 12 -4 -3z
m64 -33 c-3 -9 -8 -14 -10 -11 -3 3 -2 9 2 15 9 16 15 13 8 -4z m267 -7 c0 -4
-4 -8 -9 -8 -6 0 -12 4 -15 8 -3 5 1 9 9 9 8 0 15 -4 15 -9z m288 -53 c-3 -3
-9 2 -12 12 -6 14 -5 15 5 6 7 -7 10 -15 7 -18z m-1265 -79 c4 -10 1 -13 -8
-9 -8 3 -12 9 -9 14 7 12 11 11 17 -5z m-72 -23 c-11 -5 -11 -7 0 -14 8 -5 9
-9 3 -9 -6 0 -16 6 -22 13 -8 10 -6 13 11 14 12 0 16 -1 8 -4z m-65 -45 c5 -7
3 -8 -5 -4 -7 5 -19 0 -27 -10 -14 -18 -14 -18 -4 4 12 24 25 28 36 10z m1889
-68 c3 -5 1 -10 -4 -10 -6 0 -11 5 -11 10 0 6 2 10 4 10 3 0 8 -4 11 -10z
m183 -105 c-3 -3 -9 2 -12 12 -6 14 -5 15 5 6 7 -7 10 -15 7 -18z m-2338 5 c0
-5 -2 -10 -4 -10 -3 0 -8 5 -11 10 -3 6 -1 10 4 10 6 0 11 -4 11 -10z m2430
-66 c0 -2 -11 2 -25 8 -14 6 -25 15 -25 20 0 5 11 1 25 -8 14 -9 25 -18 25
-20z m91 -81 c8 -9 9 -14 2 -10 -6 4 -13 1 -16 -5 -3 -7 -4 -3 -4 10 1 26 1
26 18 5z m-2789 -85 c-5 -21 -6 -21 -12 -2 -8 21 -3 37 10 29 4 -3 6 -15 2
-27z m2954 -93 c9 -8 11 -15 6 -15 -5 0 -15 7 -22 15 -7 8 -9 15 -6 15 4 0 14
-7 22 -15z m91 -122 c1 -19 -1 -22 -8 -12 -11 17 -12 39 -1 39 4 0 8 -12 9
-27z m24 -56 c-10 -9 -11 -8 -5 6 3 10 9 15 12 12 3 -3 0 -11 -7 -18z m-3310
-20 c-6 -6 -18 -12 -26 -13 -11 -2 -13 2 -5 17 6 11 16 16 26 12 11 -4 12 -9
5 -16z m3354 -17 c-3 -5 -12 -10 -18 -10 -7 0 -6 4 3 10 19 12 23 12 15 0z
m-3445 -134 c0 -2 -7 -7 -16 -10 -8 -3 -12 -2 -9 4 6 10 25 14 25 6z m3568
-79 c8 -10 6 -13 -11 -14 -12 0 -16 1 -8 4 11 5 11 7 0 14 -8 5 -9 9 -3 9 6 0
16 -6 22 -13z m49 -113 c-3 -3 -12 -4 -19 -1 -8 3 -5 6 6 6 11 1 17 -2 13 -5z
m-3707 -28 c0 -2 -6 -9 -14 -15 -11 -9 -16 -9 -22 0 -4 7 -3 9 4 5 6 -3 13 -2
17 4 6 10 15 14 15 6z m3770 -146 c0 -5 -5 -10 -11 -10 -5 0 -7 5 -4 10 3 6 8
10 11 10 2 0 4 -4 4 -10z m23 -137 c-3 -7 -6 -13 -8 -13 -2 0 -5 6 -8 13 -3 8
1 14 8 14 7 0 11 -6 8 -14z m15 -144 c-3 -8 -7 -3 -11 10 -4 17 -3 21 5 13 5
-5 8 -16 6 -23z m-3941 -49 c-2 -11 -7 -23 -12 -27 -4 -5 -5 -2 -1 5 4 6 2 12
-4 12 -7 0 -6 5 2 15 17 19 18 19 15 -5z m3968 10 c-3 -5 -12 -10 -18 -10 -7
0 -6 4 3 10 19 12 23 12 15 0z m0 -30 c-3 -5 -12 -10 -18 -10 -7 0 -6 4 3 10
19 12 23 12 15 0z m0 -30 c3 -6 -1 -7 -9 -4 -18 7 -21 14 -7 14 6 0 13 -4 16
-10z m-3960 -490 c3 -6 -1 -7 -9 -4 -18 7 -21 14 -7 14 6 0 13 -4 16 -10z
m3890 -281 c-4 -5 -12 -9 -18 -8 -9 0 -8 2 1 6 6 2 9 10 6 15 -4 7 -2 8 5 4 6
-4 9 -12 6 -17z m-20 -59 c3 -5 1 -10 -4 -10 -6 0 -11 5 -11 10 0 6 2 10 4 10
3 0 8 -4 11 -10z m-15 -81 c0 -6 -4 -7 -10 -4 -5 3 -10 11 -10 16 0 6 5 7 10
4 6 -3 10 -11 10 -16z m-3716 -27 c3 -5 -1 -9 -9 -9 -8 0 -12 4 -9 9 3 4 7 8
9 8 2 0 6 -4 9 -8z m3668 -80 c-6 -16 -7 -15 -10 1 -2 9 -8 14 -14 11 -7 -4
-8 -2 -4 4 11 17 36 3 28 -16z m-3655 1 c0 -7 -4 -13 -8 -13 -4 0 -9 6 -12 13
-3 8 0 14 7 14 7 0 13 -6 13 -14z m19 -45 c0 -10 -1 -18 -3 -18 -1 0 -7 8 -12
18 -7 13 -6 19 2 19 7 0 13 -9 13 -19z m3612 -3 c-3 -3 -9 2 -12 12 -6 14 -5
15 5 6 7 -7 10 -15 7 -18z m-3584 -77 c-3 -4 4 -13 16 -20 25 -16 26 -38 3
-37 -12 0 -13 2 -5 6 10 4 9 9 -4 25 -10 10 -19 24 -20 31 -1 7 -5 21 -9 32
-4 13 -1 12 8 -5 9 -14 13 -28 11 -32z m31 2 c3 -5 1 -10 -4 -10 -6 0 -11 5
-11 10 0 6 2 10 4 10 3 0 8 -4 11 -10z m3439 -78 c3 -5 -1 -9 -9 -9 -8 0 -12
4 -9 9 3 4 7 8 9 8 2 0 6 -4 9 -8z m-3340 -110 c2 -4 -5 -9 -17 -9 -17 -2 -19
0 -7 7 18 12 18 12 24 2z m33 -44 c-2 -7 3 -18 11 -24 22 -16 27 -55 6 -47 -8
3 -13 8 -10 11 3 2 -4 18 -16 35 -12 17 -17 27 -10 23 7 -4 12 -2 12 3 0 6 3
11 6 11 3 0 4 -6 1 -12z m3048 -177 c3 -5 2 -12 -3 -15 -5 -3 -9 1 -9 9 0 17
3 19 12 6z m-2894 -19 c-7 -2 -18 1 -23 6 -8 8 -4 9 13 5 13 -4 18 -8 10 -11z
m33 -20 c-5 -4 -12 -11 -15 -15 -3 -5 -9 -2 -12 5 -3 9 3 14 15 15 11 1 16 -1
12 -5z m2819 -7 c-3 -9 -8 -14 -10 -11 -3 3 -2 9 2 15 9 16 15 13 8 -4z m-143
-169 c0 -2 -7 -9 -15 -16 -13 -11 -14 -10 -9 4 5 14 24 23 24 12z m-2419 -63
c13 -16 12 -17 -3 -4 -17 13 -22 21 -14 21 2 0 10 -8 17 -17z m2148 -97 c9
-10 6 -17 -13 -29 -20 -14 -25 -14 -30 -2 -3 10 0 12 11 8 11 -4 14 -2 9 5 -5
8 -1 10 11 5 16 -6 16 -5 4 10 -7 9 -11 17 -8 17 2 0 10 -6 16 -14z m-1844
-54 c-8 -8 -55 -11 -55 -3 0 4 14 8 30 8 17 0 28 -2 25 -5z m1658 -65 c-5 -8
-8 -7 -11 1 -3 10 -7 10 -20 0 -15 -12 -15 -11 -4 4 14 18 47 13 35 -5z m-56
-4 c0 -9 -4 -10 -14 -2 -7 6 -13 12 -13 14 0 1 6 2 13 2 8 0 14 -6 14 -14z
m-1176 -100 c13 -16 12 -17 -3 -4 -10 7 -18 15 -18 17 0 8 8 3 21 -13z m39 7
c0 -5 -5 -10 -11 -10 -5 0 -7 5 -4 10 3 6 8 10 11 10 2 0 4 -4 4 -10z m800 0
c0 -5 -5 -10 -11 -10 -5 0 -7 5 -4 10 3 6 8 10 11 10 2 0 4 -4 4 -10z m-124
-25 c-1 -8 -5 -17 -8 -21 -5 -4 -4 16 1 34 3 9 9 -1 7 -13z m-189 -27 c-3 -8
-6 -5 -6 6 -1 11 2 17 5 13 3 -3 4 -12 1 -19z m138 3 c-8 -14 -25 -14 -25 0 0
5 5 7 10 4 6 -3 10 -1 10 6 0 7 3 10 6 6 3 -3 3 -10 -1 -16z"/>
<path d="M2255 4520 c-3 -5 -1 -10 4 -10 6 0 11 5 11 10 0 6 -2 10 -4 10 -3 0
-8 -4 -11 -10z"/>
<path d="M2520 4521 c0 -6 4 -13 10 -16 6 -3 7 1 4 9 -7 18 -14 21 -14 7z"/>
<path d="M2173 4513 c11 -18 -12 -26 -31 -11 -15 12 -16 11 -3 -4 12 -16 43
-19 56 -6 3 3 -2 11 -12 19 -9 8 -14 9 -10 2z"/>
<path d="M2790 4517 c0 -2 6 -10 14 -16 11 -9 16 -9 22 1 4 7 4 10 -1 6 -4 -4
-14 -3 -22 3 -7 6 -13 9 -13 6z"/>
<path d="M1995 4480 c-3 -5 -1 -10 4 -10 6 0 11 5 11 10 0 6 -2 10 -4 10 -3 0
-8 -4 -11 -10z"/>
<path d="M3114 4439 c-7 -12 17 -32 26 -22 3 3 -1 8 -8 10 -6 3 -10 9 -6 14 3
5 3 9 0 9 -3 0 -8 -5 -12 -11z"/>
<path d="M1777 4413 c-10 -9 -9 -23 1 -23 5 0 9 7 9 15 0 17 -1 18 -10 8z"/>
<path d="M1705 4380 c-3 -6 1 -7 9 -4 18 7 21 14 7 14 -6 0 -13 -4 -16 -10z"/>
<path d="M3270 4362 c0 -5 7 -9 15 -9 8 0 12 4 9 9 -3 4 -9 8 -15 8 -5 0 -9
-4 -9 -8z"/>
<path d="M3347 4334 c6 -15 23 -19 23 -5 0 5 -7 11 -14 14 -10 4 -13 1 -9 -9z"/>
<path d="M1400 4195 c-7 -8 -8 -15 -2 -15 5 0 15 7 22 15 7 8 8 15 2 15 -5 0
-15 -7 -22 -15z"/>
<path d="M1247 4119 c7 -7 15 -10 18 -7 3 3 -2 9 -12 12 -14 6 -15 5 -6 -5z"/>
<path d="M1131 3989 c-10 -17 -15 -19 -29 -8 -14 11 -15 11 -5 0 13 -16 6 -44
-10 -34 -6 4 -7 1 -2 -6 5 -10 11 -8 24 6 9 10 24 25 35 34 10 9 15 19 9 22
-5 3 -15 -3 -22 -14z"/>
<path d="M1055 3949 c-4 -6 -5 -12 -2 -15 2 -3 7 2 10 11 7 17 1 20 -8 4z"/>
<path d="M1009 3883 c-1 -5 -1 -12 0 -17 1 -5 -7 -6 -19 -3 -11 3 -17 1 -14
-4 9 -16 37 -6 40 14 1 9 0 17 -2 17 -2 0 -5 -3 -5 -7z"/>
<path d="M4055 3760 c3 -5 12 -7 20 -3 21 7 19 13 -6 13 -11 0 -18 -4 -14 -10z"/>
<path d="M4184 3615 c-18 -14 -18 -14 4 -8 12 3 22 9 22 14 0 12 -3 11 -26 -6z"/>
<path d="M4215 3540 c10 -11 23 -20 28 -20 6 0 0 9 -13 20 -13 11 -25 20 -28
20 -3 0 3 -9 13 -20z"/>
<path d="M755 3540 c3 -5 8 -10 11 -10 2 0 4 5 4 10 0 6 -5 10 -11 10 -5 0 -7
-4 -4 -10z"/>
<path d="M736 3501 c-3 -5 0 -11 7 -14 8 -3 14 1 14 9 0 16 -13 19 -21 5z"/>
<path d="M4266 3483 c-6 -14 -5 -15 5 -6 7 7 10 15 7 18 -3 3 -9 -2 -12 -12z"/>
<path d="M590 3200 c0 -5 5 -10 11 -10 5 0 7 5 4 10 -3 6 -8 10 -11 10 -2 0
-4 -4 -4 -10z"/>
<path d="M4428 3038 c5 -5 16 -8 23 -6 8 3 3 7 -10 11 -17 4 -21 3 -13 -5z"/>
<path d="M4506 2662 c-3 -5 1 -9 9 -9 8 0 12 4 9 9 -3 4 -7 8 -9 8 -2 0 -6 -4
-9 -8z"/>
<path d="M4511 2626 c-9 -11 -9 -16 1 -22 7 -4 10 -4 6 1 -4 4 -3 14 3 22 6 7
9 13 6 13 -2 0 -10 -6 -16 -14z"/>
<path d="M4503 2504 c0 -16 13 -19 21 -5 3 5 0 11 -7 14 -8 3 -14 -1 -14 -9z"/>
<path d="M4505 2449 c0 -16 1 -29 1 -29 1 0 10 12 19 28 10 15 14 24 10 20 -5
-4 -13 -4 -19 2 -9 6 -12 0 -11 -21z"/>
<path d="M510 2160 c0 -5 5 -10 10 -10 6 0 10 5 10 10 0 6 -4 10 -10 10 -5 0
-10 -4 -10 -10z"/>
<path d="M4471 2051 c-8 -5 -16 -17 -17 -26 -1 -9 1 -14 4 -10 4 4 6 9 4 12
-2 3 5 11 15 19 20 15 16 19 -6 5z"/>
<path d="M553 1965 c0 -8 4 -12 9 -9 5 3 6 10 3 15 -9 13 -12 11 -12 -6z"/>
<path d="M613 1785 c0 -8 7 -15 15 -15 12 0 12 3 2 15 -7 8 -13 15 -15 15 -1
0 -2 -7 -2 -15z"/>
<path d="M615 1720 c-4 -6 1 -7 11 -3 13 5 15 3 9 -7 -5 -9 -4 -11 4 -6 6 4 9
12 6 17 -8 12 -22 12 -30 -1z"/>
<path d="M4306 1598 c3 -5 10 -6 15 -3 13 9 11 12 -6 12 -8 0 -12 -4 -9 -9z"/>
<path d="M4270 1519 c0 -5 5 -7 10 -4 6 3 10 8 10 11 0 2 -4 4 -10 4 -5 0 -10
-5 -10 -11z"/>
<path d="M4150 1320 c0 -5 5 -10 11 -10 5 0 7 5 4 10 -3 6 -8 10 -11 10 -2 0
-4 -4 -4 -10z"/>
<path d="M4037 1224 c-3 -5 1 -15 9 -22 16 -14 18 -5 5 17 -5 7 -11 9 -14 5z"/>
<path d="M3794 976 c-10 -8 -17 -17 -14 -19 3 -3 14 1 24 9 11 7 17 16 15 19
-3 3 -14 -2 -25 -9z"/>
<path d="M1493 748 c-2 -16 1 -18 10 -9 7 7 8 14 1 21 -6 6 -10 2 -11 -12z"/>
<path d="M3395 709 c-4 -5 -4 -13 -1 -16 3 -4 6 0 6 8 0 11 2 11 10 -1 6 -9
10 -10 10 -3 0 17 -17 25 -25 12z"/>
<path d="M3135 611 c-3 -5 -1 -12 5 -16 5 -3 10 1 10 9 0 18 -6 21 -15 7z"/>
<path d="M2950 540 c0 -5 5 -10 10 -10 6 0 10 5 10 10 0 6 -4 10 -10 10 -5 0
-10 -4 -10 -10z"/>
<path d="M2147 525 c3 -8 9 -12 14 -9 12 7 11 11 -5 17 -10 4 -13 1 -9 -8z"/>
<path d="M2270 511 c0 -5 7 -12 16 -15 14 -5 15 -4 4 9 -14 17 -20 19 -20 6z"/>
<path d="M2435 489 c-4 -6 -4 -13 -1 -16 3 -4 6 -1 6 6 0 7 5 9 12 5 7 -4 8
-3 4 4 -9 15 -13 15 -21 1z"/>
<path d="M2260 486 c0 -2 7 -7 16 -10 8 -3 12 -2 9 4 -6 10 -25 14 -25 6z"/>
</g>
</svg>
