<?xml version="1.0" standalone="no"?>
<!DOCTYPE svg PUBLIC "-//W3C//DTD SVG 20010904//EN"
 "http://www.w3.org/TR/2001/REC-SVG-20010904/DTD/svg10.dtd">
<svg version="1.0" xmlns="http://www.w3.org/2000/svg"
 width="500.000000pt" height="500.000000pt" viewBox="0 0 500.000000 500.000000"
 preserveAspectRatio="xMidYMid meet">
<metadata>
Created by potrace 1.14, written by Peter Selinger 2001-2017
</metadata>
<g transform="translate(0.000000,500.000000) scale(0.100000,-0.100000)"
fill="#000000" stroke="none">
<path d="M805 4924 c-260 -47 -475 -212 -589 -455 -77 -162 -71 3 -71 -1969
l0 -1765 23 -79 c71 -245 249 -445 478 -537 154 -62 81 -60 1890 -57 1816 3
1668 -2 1826 62 246 100 433 330 482 597 15 76 16 263 14 1810 l-3 1724 -22
75 c-85 298 -285 499 -579 582 l-79 23 -1645 2 c-1392 1 -1657 -1 -1725 -13z
m3390 -132 c136 -46 223 -99 320 -197 145 -144 204 -271 225 -482 8 -75 10
-586 8 -1693 -4 -1743 0 -1620 -64 -1772 -97 -231 -313 -406 -561 -454 -63
-12 -320 -14 -1629 -14 -1762 0 -1634 -6 -1813 82 -88 43 -117 64 -191 137
-141 139 -209 281 -230 478 -7 66 -10 624 -8 1698 4 1475 5 1605 21 1663 20
75 73 190 114 251 78 113 211 220 343 275 139 57 58 55 1795 53 l1600 -2 70
-23z"/>
<path d="M2348 4563 c-133 -3 -138 -4 -142 -26 -3 -12 -14 -434 -26 -937 -12
-503 -23 -920 -25 -926 -2 -7 -67 -13 -184 -18 -246 -9 -433 -34 -601 -81
-356 -100 -609 -300 -716 -565 -58 -141 -68 -201 -68 -410 -1 -199 10 -286 50
-409 48 -142 161 -307 273 -394 86 -68 227 -140 346 -176 231 -71 415 -88
1043 -97 l492 -7 0 244 c0 134 -7 948 -15 1809 -7 861 -12 1566 -11 1568 2 1
9 -45 15 -104 11 -97 58 -250 531 -1733 285 -894 529 -1645 541 -1669 39 -76
138 -116 226 -91 78 21 143 106 143 186 0 11 -238 765 -529 1674 l-529 1654
-117 215 c-64 118 -129 231 -145 250 -30 39 -61 50 -105 38 -19 -5 -31 -4 -33
2 -4 10 -77 10 -414 3z m558 -188 l61 -110 -65 -22 c-36 -13 -67 -21 -70 -19
-4 5 -31 213 -32 249 0 13 6 18 22 15 17 -2 38 -31 84 -113z m152 -277 c43
-81 116 -299 552 -1663 276 -863 511 -1602 522 -1640 l21 -71 -20 -46 c-18
-38 -28 -48 -68 -64 -43 -16 -51 -16 -88 -3 -22 8 -48 25 -58 39 -11 14 -253
757 -538 1652 -458 1435 -521 1639 -532 1728 -6 56 -8 104 -4 108 9 10 126 50
147 51 11 1 33 -30 66 -91z m-922 -2070 c-3 -46 -13 -263 -22 -483 -8 -220
-17 -410 -20 -423 l-5 -24 -232 4 c-221 3 -235 5 -305 30 -181 66 -268 196
-279 418 -11 234 61 391 215 469 116 58 260 81 581 89 l73 2 -6 -82z"/>
<path d="M3801 1346 c-9 -10 10 -79 79 -297 50 -156 96 -289 102 -296 15 -18
47 -16 55 3 5 14 -136 484 -173 572 -14 34 -43 43 -63 18z"/>
</g>
</svg>
